<svg width="24" height="24" viewBox="0 0 24 24" fill="none" xmlns="http://www.w3.org/2000/svg">
    <path fill-rule="evenodd" clip-rule="evenodd" d="M6.61539 19.1429L6.61539 4.85714C6.61539 4.09938 6.93956 3.37265 7.51659 2.83684C8.09363 2.30102 8.87626 2 9.69231 2L14.3077 2C15.1237 2 15.9064 2.30102 16.4834 2.83684C17.0604 3.37265 17.3846 4.09938 17.3846 4.85714L17.3846 19.1429C17.3846 19.9006 17.0604 20.6273 16.4834 21.1632C15.9064 21.699 15.1237 22 14.3077 22L9.69231 22C8.87626 22 8.09363 21.699 7.51659 21.1632C6.93956 20.6273 6.61539 19.9006 6.61539 19.1429ZM8.15385 19.1429C8.15385 19.5217 8.31594 19.8851 8.60445 20.153C8.89297 20.4209 9.28428 20.5714 9.69231 20.5714L14.3077 20.5714C14.7157 20.5714 15.107 20.4209 15.3956 20.153C15.6841 19.8851 15.8462 19.5217 15.8462 19.1429L15.8462 4.85714C15.8462 4.47826 15.6841 4.1149 15.3956 3.84699C15.107 3.57908 14.7157 3.42857 14.3077 3.42857L9.69231 3.42857C9.28428 3.42857 8.89297 3.57908 8.60445 3.84699C8.31594 4.1149 8.15385 4.47826 8.15385 4.85714L8.15385 19.1429ZM2.76923 22C2.56522 22 2.36956 21.9247 2.2253 21.7908C2.08104 21.6568 2 21.4752 2 21.2857L2 2.71428C2 2.52484 2.08104 2.34316 2.2253 2.20921C2.36956 2.07525 2.56522 2 2.76923 2C2.97324 2 3.1689 2.07525 3.31316 2.20921C3.45742 2.34316 3.53846 2.52484 3.53846 2.71428L3.53846 21.2857C3.53846 21.4752 3.45742 21.6568 3.31316 21.7908C3.1689 21.9247 2.97324 22 2.76923 22ZM21.2308 22C21.0268 22 20.8311 21.9247 20.6868 21.7908C20.5426 21.6568 20.4615 21.4752 20.4615 21.2857L20.4615 2.71428C20.4615 2.52484 20.5426 2.34316 20.6868 2.20921C20.8311 2.07525 21.0268 2 21.2308 2C21.4348 2 21.6304 2.07525 21.7747 2.20921C21.919 2.34316 22 2.52484 22 2.71428L22 21.2857C22 21.4752 21.919 21.6568 21.7747 21.7908C21.6304 21.9247 21.4348 22 21.2308 22Z" fill="#33BDE4"/>
</svg>
